<?xml version="1.0" encoding="utf-8"?>
<!-- Generator: Adobe Illustrator 23.0.3, SVG Export Plug-In . SVG Version: 6.00 Build 0)  -->
<svg version="1.1" id="レイヤー_1" xmlns="http://www.w3.org/2000/svg" xmlns:xlink="http://www.w3.org/1999/xlink" x="0px"
	 y="0px" viewBox="0 0 190 40" style="enable-background:new 0 0 190 40;" xml:space="preserve">
<style type="text/css">
	.st0{fill:#328CCC;}
</style>
<g>
	<path class="st0" d="M63.9,5.9l7.9,27.9h-3.4l-1.2-4.5h-6.6l-1.2,4.5H56L63.9,5.9z M66.4,26.3l-1.8-7l-0.7-3.2l-0.7,3.2l-1.8,7
		H66.4z"/>
	<path class="st0" d="M80.2,29.7c0.6,0.3,1.1,0.6,1.7,0.9s1.3,0.4,2,0.4c0.4,0,0.9-0.1,1.3-0.2c0.4-0.1,0.8-0.3,1.1-0.6
		c0.3-0.3,0.5-0.6,0.7-1c0.2-0.4,0.3-0.9,0.3-1.4c0-0.4,0-0.8-0.1-1.2c-0.1-0.4-0.3-0.8-0.5-1.3c-0.2-0.5-0.5-1-0.9-1.5
		c-0.4-0.5-0.8-1.2-1.3-1.8l-2.2-2.8c-0.5-0.7-1-1.3-1.4-2c-0.4-0.6-0.7-1.2-0.9-1.8c-0.2-0.6-0.4-1.1-0.5-1.7
		c-0.1-0.5-0.2-1-0.2-1.6c0-0.8,0.1-1.6,0.4-2.4C80,9,80.4,8.4,80.9,7.8c0.5-0.5,1.2-0.9,1.9-1.2s1.6-0.4,2.5-0.4
		c0.7,0,1.5,0.1,2.3,0.3c0.8,0.2,1.5,0.5,2.2,0.9L88.4,10c-0.4-0.2-0.8-0.4-1.3-0.6c-0.5-0.2-1-0.3-1.5-0.3c-0.9,0-1.7,0.3-2.2,0.8
		c-0.6,0.5-0.8,1.3-0.8,2.2c0,0.3,0,0.5,0.1,0.8c0.1,0.3,0.2,0.6,0.3,0.9c0.1,0.3,0.3,0.7,0.6,1.1c0.2,0.4,0.6,0.8,0.9,1.3l3.2,4.2
		c0.4,0.5,0.8,1.1,1.2,1.6c0.4,0.5,0.7,1,0.9,1.6c0.3,0.5,0.5,1.1,0.6,1.7c0.2,0.6,0.2,1.2,0.2,1.9c0,1-0.2,1.9-0.5,2.7
		c-0.3,0.8-0.8,1.5-1.4,2.1c-0.6,0.6-1.3,1-2.1,1.3c-0.8,0.3-1.7,0.5-2.7,0.5s-2-0.1-2.9-0.4c-0.9-0.3-1.7-0.7-2.3-1.1L80.2,29.7z"
		/>
	<path class="st0" d="M100.2,6.7h3.2v15h6v-15h3.2v27.1h-3.2v-9.1h-6v9.1h-3.2V6.7z"/>
	<path class="st0" d="M123.1,6.7h3.2v27.1h-3.2V6.7z"/>
	<path class="st0" d="M136.9,6.4c1.9-0.1,3.6,0.1,5.1,0.5c1.4,0.4,2.6,1,3.6,1.9c0.9,0.8,1.6,1.8,2.1,3s0.7,2.5,0.7,4
		c0,1.7-0.3,3.2-0.9,4.5c-0.6,1.3-1.6,2.4-2.8,3.2l4.7,10.3h-3.6l-3.9-9.1c-0.6,0.2-1.2,0.3-1.8,0.4v8.8h-3.2V6.4L136.9,6.4z
		 M140.1,21.8c0.7-0.1,1.4-0.2,2-0.5c0.6-0.3,1.1-0.7,1.6-1.2s0.8-1.1,1-1.8s0.4-1.6,0.4-2.5c0-0.9-0.1-1.8-0.4-2.5s-0.6-1.3-1-1.8
		s-1-0.9-1.6-1.2c-0.6-0.3-1.3-0.4-2-0.5V21.8z"/>
	<path class="st0" d="M163.3,5.9l7.9,27.9h-3.4l-1.2-4.5H160l-1.2,4.5h-3.4L163.3,5.9z M165.8,26.3l-1.8-7l-0.7-3.2l-0.7,3.2l-1.8,7
		H165.8z"/>
	<path class="st0" d="M179.6,29.7c0.6,0.3,1.1,0.6,1.7,0.9c0.6,0.3,1.3,0.4,2,0.4c0.4,0,0.9-0.1,1.3-0.2s0.8-0.3,1.1-0.6
		c0.3-0.3,0.5-0.6,0.7-1s0.3-0.9,0.3-1.4c0-0.4,0-0.8-0.1-1.2c-0.1-0.4-0.3-0.8-0.5-1.3s-0.5-1-0.9-1.5s-0.8-1.2-1.3-1.8l-2.2-2.8
		c-0.5-0.7-1-1.3-1.4-2c-0.4-0.6-0.7-1.2-0.9-1.8c-0.2-0.6-0.4-1.1-0.5-1.7c-0.1-0.5-0.2-1-0.2-1.6c0-0.8,0.1-1.6,0.4-2.4
		c0.3-0.7,0.7-1.3,1.2-1.9c0.5-0.5,1.2-0.9,1.9-1.2s1.6-0.4,2.5-0.4c0.7,0,1.5,0.1,2.3,0.3s1.5,0.5,2.2,0.9l-1.4,2.6
		c-0.4-0.2-0.8-0.4-1.3-0.6c-0.5-0.2-1-0.3-1.5-0.3c-0.9,0-1.7,0.3-2.2,0.8c-0.6,0.5-0.8,1.3-0.8,2.2c0,0.3,0,0.5,0.1,0.8
		c0.1,0.3,0.2,0.6,0.3,0.9c0.1,0.3,0.3,0.7,0.6,1.1c0.2,0.4,0.6,0.8,0.9,1.3l3.2,4.2c0.4,0.5,0.8,1.1,1.2,1.6s0.7,1,0.9,1.6
		c0.3,0.5,0.5,1.1,0.6,1.7c0.2,0.6,0.2,1.2,0.2,1.9c0,1-0.2,1.9-0.5,2.7c-0.3,0.8-0.8,1.5-1.4,2.1c-0.6,0.6-1.3,1-2.1,1.3
		s-1.7,0.5-2.7,0.5s-2-0.1-2.9-0.4c-0.9-0.3-1.7-0.7-2.3-1.1L179.6,29.7z"/>
</g>
<g>
	<path class="st0" d="M3,40H0c0-8,5.6-14.2,14.7-16.5v-7C5.6,14.2,0,8,0,0h3c0,8.1,7,12.5,13.5,13.8l1.2,0.2v11.9l-1.2,0.2
		C10,27.5,3,31.9,3,40z"/>
	<path class="st0" d="M43,40h-3c0-8.1-7-12.5-13.5-13.8L25.3,26V14.1l1.2-0.2C33.1,12.5,40,8.1,40,0h3c0,8-5.6,14.2-14.7,16.5v7
		C37.4,25.8,43,32,43,40z"/>
</g>
</svg>
