<svg xmlns="http://www.w3.org/2000/svg" width="190" height="39.17" viewBox="0 0 190 39.17">
  <g id="l-footer-logo-img" transform="translate(-310.769 -331.195)">
    <g id="グループ化_8" data-name="グループ化 8" transform="translate(366.765 337.068)">
      <path id="パス_14" data-name="パス 14" d="M378.668,337.068l7.875,27.1h-3.4l-1.19-4.373h-6.583l-1.174,4.373h-3.4Zm2.5,19.822-1.82-6.783-.7-3.136-.664,3.136-1.837,6.783Z" transform="translate(-370.792 -337.068)" fill="#fff"/>
      <path id="パス_15" data-name="パス 15" d="M395.034,360.235a15.325,15.325,0,0,0,1.743.859,5.141,5.141,0,0,0,2,.378,4.463,4.463,0,0,0,1.276-.18,3,3,0,0,0,1.071-.562,2.708,2.708,0,0,0,.732-.965,3.291,3.291,0,0,0,.272-1.394,4.631,4.631,0,0,0-.145-1.122,6.218,6.218,0,0,0-.476-1.246,12.9,12.9,0,0,0-.867-1.461q-.535-.792-1.336-1.765l-2.194-2.691a19.4,19.4,0,0,1-1.386-1.914,12.87,12.87,0,0,1-.928-1.74,8.524,8.524,0,0,1-.518-1.6,7.293,7.293,0,0,1-.162-1.51,6.25,6.25,0,0,1,.408-2.285,5.1,5.1,0,0,1,1.191-1.815,5.48,5.48,0,0,1,1.9-1.2,6.98,6.98,0,0,1,2.526-.43,9.2,9.2,0,0,1,2.262.289,8.793,8.793,0,0,1,2.229.916l-1.361,2.558a8.325,8.325,0,0,0-1.285-.6,4.338,4.338,0,0,0-1.522-.256,3.16,3.16,0,0,0-2.228.767,2.8,2.8,0,0,0-.834,2.17,3.782,3.782,0,0,0,.085.784,4.447,4.447,0,0,0,.3.883,8.33,8.33,0,0,0,.578,1.056q.366.578.927,1.3l3.181,4.06q.612.792,1.157,1.541a10.934,10.934,0,0,1,.935,1.535,8.719,8.719,0,0,1,.622,1.651,7.336,7.336,0,0,1,.229,1.872,6.862,6.862,0,0,1-.493,2.665,5.733,5.733,0,0,1-1.378,2.006,6.024,6.024,0,0,1-2.1,1.262,7.829,7.829,0,0,1-2.662.437,9.444,9.444,0,0,1-2.858-.43,9.13,9.13,0,0,1-2.347-1.089Z" transform="translate(-370.792 -337.068)" fill="#fff"/>
      <path id="パス_16" data-name="パス 16" d="M414.978,337.9h3.164v14.576h5.971V337.9h3.164v26.267h-3.164v-8.788h-5.971v8.788h-3.164Z" transform="translate(-370.792 -337.068)" fill="#fff"/>
      <path id="パス_17" data-name="パス 17" d="M437.856,337.9h3.164v26.267h-3.164Z" transform="translate(-370.792 -337.068)" fill="#fff"/>
      <path id="パス_18" data-name="パス 18" d="M451.733,337.56a16.345,16.345,0,0,1,5.07.5,9.268,9.268,0,0,1,3.572,1.823,7.531,7.531,0,0,1,2.109,2.944,10.2,10.2,0,0,1,.7,3.844,9.984,9.984,0,0,1-.919,4.371,7.473,7.473,0,0,1-2.824,3.118l4.712,10.013h-3.572l-3.878-8.858a12.644,12.644,0,0,1-1.8.346v8.512h-3.164Zm3.164,14.979a6.543,6.543,0,0,0,2.008-.495,4.533,4.533,0,0,0,1.582-1.131,5.241,5.241,0,0,0,1.037-1.789,8.246,8.246,0,0,0,0-4.917,5.249,5.249,0,0,0-1.037-1.789,4.53,4.53,0,0,0-1.582-1.13,6.517,6.517,0,0,0-2.008-.5Z" transform="translate(-370.792 -337.068)" fill="#fff"/>
      <path id="パス_19" data-name="パス 19" d="M478.054,337.068l7.876,27.1h-3.4l-1.191-4.373h-6.583l-1.174,4.373h-3.4Zm2.5,19.822-1.821-6.783-.7-3.136-.664,3.136-1.837,6.783Z" transform="translate(-370.792 -337.068)" fill="#fff"/>
      <path id="パス_20" data-name="パス 20" d="M494.42,360.235a15.408,15.408,0,0,0,1.743.859,5.141,5.141,0,0,0,2,.378,4.458,4.458,0,0,0,1.276-.18,3.012,3.012,0,0,0,1.072-.562,2.718,2.718,0,0,0,.731-.965,3.291,3.291,0,0,0,.272-1.394,4.629,4.629,0,0,0-.144-1.122,6.223,6.223,0,0,0-.477-1.246,12.9,12.9,0,0,0-.867-1.461q-.535-.792-1.336-1.765l-2.194-2.691a19.739,19.739,0,0,1-1.386-1.914,12.749,12.749,0,0,1-.927-1.74,8.53,8.53,0,0,1-.519-1.6,7.293,7.293,0,0,1-.162-1.51,6.25,6.25,0,0,1,.409-2.285,5.1,5.1,0,0,1,1.19-1.815,5.48,5.48,0,0,1,1.9-1.2,6.984,6.984,0,0,1,2.526-.43,9.213,9.213,0,0,1,2.263.289,8.8,8.8,0,0,1,2.228.916l-1.361,2.558a8.312,8.312,0,0,0-1.284-.6,4.34,4.34,0,0,0-1.523-.256,3.16,3.16,0,0,0-2.228.767,2.8,2.8,0,0,0-.833,2.17,3.782,3.782,0,0,0,.084.784,4.447,4.447,0,0,0,.3.883,8.334,8.334,0,0,0,.578,1.056q.366.578.928,1.3l3.18,4.06q.613.792,1.157,1.541a11.044,11.044,0,0,1,.936,1.535,8.788,8.788,0,0,1,.621,1.651,7.291,7.291,0,0,1,.229,1.872,6.844,6.844,0,0,1-.493,2.665,5.719,5.719,0,0,1-1.378,2.006,6.029,6.029,0,0,1-2.1,1.262,7.835,7.835,0,0,1-2.663.437,9.433,9.433,0,0,1-2.857-.43,9.138,9.138,0,0,1-2.348-1.089Z" transform="translate(-370.792 -337.068)" fill="#fff"/>
    </g>
    <g id="グループ化_9" data-name="グループ化 9" transform="translate(310.769 331.195)">
      <path id="パス_21" data-name="パス 21" d="M313.769,370.365h-3c0-7.79,5.583-13.893,14.662-16.145v-6.88c-9.079-2.252-14.662-8.355-14.662-16.145h3c0,7.952,6.957,12.207,13.468,13.539l1.194.244v11.6l-1.194.244C320.726,358.158,313.769,362.413,313.769,370.365Z" transform="translate(-310.769 -331.195)" fill="#fff"/>
      <path id="パス_22" data-name="パス 22" d="M353.769,370.365h-3c0-7.952-6.958-12.208-13.469-13.539l-1.193-.244v-11.6l1.193-.244c6.511-1.331,13.469-5.587,13.469-13.539h3c0,7.79-5.584,13.893-14.662,16.145v6.88C348.185,356.472,353.769,362.575,353.769,370.365Z" transform="translate(-310.769 -331.195)" fill="#fff"/>
    </g>
  </g>
</svg>
